<svg version="1.1" viewBox="0.0 0.0 1024.0 1024.0" fill="none" stroke="none" stroke-linecap="square" stroke-miterlimit="10" xmlns:xlink="http://www.w3.org/1999/xlink" xmlns="http://www.w3.org/2000/svg"><clipPath id="p.0"><path d="m0 0l1024.0 0l0 1024.0l-1024.0 0l0 -1024.0z" clip-rule="nonzero"/></clipPath><g clip-path="url(#p.0)"><path fill="#000000" fill-opacity="0.0" d="m0 0l1024.0 0l0 1024.0l-1024.0 0z" fill-rule="evenodd"/><path fill="#76a5af" d="m39.354332 512.0l0 0c0 -261.03497 211.61069 -472.64566 472.64566 -472.64566l0 0c125.353455 0 245.5727 49.796455 334.21094 138.43472c88.638306 88.63826 138.43475 208.85753 138.43475 334.21094l0 0c0 261.03497 -211.61072 472.6457 -472.6457 472.6457l0 0c-261.03497 0 -472.64566 -211.61072 -472.64566 -472.6457z" fill-rule="evenodd"/><path fill="#000000" fill-opacity="0.0" d="m39.354332 452.2047l945.2914 0l0 119.590576l-945.2914 0z" fill-rule="evenodd"/><path fill="#ffffff" d="m104.217094 512.8303l-6.34375 -10.4687195l0 -32.0625l6.34375 0l0 42.53122zm5.8125 9.625l-6.34375 -10.6718445l0 -41.484375l6.34375 0l0 52.15622zm5.8125 9.6875l-6.34375 -10.75l0 -51.09372l6.34375 0l0 61.84372zm-45.09375 -34.140594l6.34375 10.5l0 32.06247l-6.34375 0l0 -42.56247zm-5.8125 -9.578125l6.34375 10.640625l0 41.49997l-6.34375 0l0 -52.140594zm-5.8125 -9.71875l6.34375 10.75l0 51.109344l-6.34375 0l0 -61.859344zm-0.34375 -8.40625l7.4375 0l43.1875 70.265594l-7.4375 0l-43.1875 -70.265594zm6.859375 0l7.46875 0l43.15625 70.265594l-7.515625 0l-43.109375 -70.265594zm6.828125 0l7.421875 0l35.421875 57.734344l0 -57.734344l6.34375 0l0 70.265594q0 0 -6.125 0l-43.0625 -70.265594zm-12.8125 12.515625l0 57.74997l-6.34375 0l0 -70.265594q0 0 6.15625 0l43.0625 70.265594l-7.359375 0l-35.515625 -57.74997zm92.69137 12.53125q-4.1875 4.1875 -4.1875 10.09375q0 5.890625 4.1875 10.0780945q4.1875 4.171875 10.078125 4.171875q5.90625 0 10.078125 -4.171875q4.1875 -4.1874695 4.1875 -10.0780945q0 -5.90625 -4.1875 -10.09375q-4.171875 -4.1875 -10.078125 -4.1875q-5.890625 0 -10.078125 4.1875zm-8.890625 18.09372q-1.625 -3.8124695 -1.625 -7.9999695q0 -4.203125 1.625 -8.0q1.625 -3.8125 4.390625 -6.578125q2.78125 -2.78125 6.578125 -4.40625q3.8125 -1.640625 8.0 -1.640625q4.203125 0 8.0 1.640625q3.8125 1.625 6.578125 4.40625q2.78125 2.765625 4.40625 6.578125q1.625 3.796875 1.625 8.0q0 4.1875 -1.625 7.9999695q-1.625 3.796875 -4.40625 6.578125q-2.765625 2.765625 -6.578125 4.390625q-3.796875 1.625 -8.0 1.625q-4.1875 0 -8.0 -1.625q-3.796875 -1.625 -6.578125 -4.390625q-2.765625 -2.78125 -4.390625 -6.578125zm1.59375 -18.078094q-2.6875 4.609375 -2.6875 10.078125q0 5.453125 2.6875 10.0780945q2.6875 4.609375 7.296875 7.296875q4.625 2.6875 10.078125 2.6875q5.46875 0 10.078125 -2.6875q4.625 -2.6875 7.3125 -7.296875q2.6875 -4.6249695 2.6875 -10.0780945q0 -5.46875 -2.6875 -10.078125q-2.6875 -4.625 -7.3125 -7.3125q-4.609375 -2.703125 -10.078125 -2.703125q-5.453125 0 -10.078125 2.703125q-4.609375 2.6875 -7.296875 7.3125zm-5.5 23.31247q-3.53125 -6.078125 -3.53125 -13.2499695q0 -7.171875 3.53125 -13.25q3.546875 -6.078125 9.625 -9.625q6.09375 -3.546875 13.25 -3.546875q7.171875 0 13.25 3.546875q6.09375 3.546875 9.625 9.625q3.546875 6.078125 3.546875 13.25q0 7.1718445 -3.546875 13.2499695q-3.53125 6.078125 -9.625 9.625q-6.078125 3.546875 -13.25 3.546875q-7.15625 0 -13.25 -3.546875q-6.078125 -3.546875 -9.625 -9.625zm-0.953125 -23.31247q-2.046875 4.796875 -2.046875 10.0625q0 5.265625 2.046875 10.0780945q2.046875 4.796875 5.5 8.265625q3.453125 3.453125 8.25 5.5q4.8125 2.046875 10.078125 2.046875q5.265625 0 10.0625 -2.046875q4.8125 -2.046875 8.265625 -5.5q3.46875 -3.46875 5.515625 -8.265625q2.046875 -4.8124695 2.046875 -10.0780945q0 -5.265625 -2.046875 -10.0625q-2.046875 -4.8125 -5.515625 -8.265625q-3.453125 -3.46875 -8.265625 -5.515625q-4.796875 -2.046875 -10.0625 -2.046875q-5.265625 0 -10.078125 2.046875q-4.796875 2.046875 -8.25 5.515625q-3.453125 3.453125 -5.5 8.265625zm-4.0625 26.234344q-4.328125 -7.421875 -4.328125 -16.15622q0 -8.75 4.328125 -16.15625q4.328125 -7.421875 11.734375 -11.75q7.421875 -4.328125 16.15625 -4.328125q8.75 0 16.15625 4.328125q7.421875 4.328125 11.75 11.75q4.328125 7.40625 4.328125 16.15625q0 8.7343445 -4.328125 16.15622q-4.328125 7.40625 -11.75 11.734375q-7.40625 4.328125 -16.15625 4.328125q-8.734375 0 -16.15625 -4.328125q-7.40625 -4.328125 -11.734375 -11.734375zm-1.296875 -28.484344q-2.5 5.875 -2.5 12.3125q0 6.4375 2.5 12.3124695q2.515625 5.875 6.75 10.125q4.25 4.25 10.125 6.765625q5.875 2.5 12.3125 2.5q6.4375 0 12.3125 -2.5q5.875 -2.515625 10.125 -6.765625q4.25 -4.25 6.75 -10.125q2.515625 -5.8749695 2.515625 -12.3124695q0 -6.4375 -2.515625 -12.3125q-2.5 -5.875 -6.75 -10.109375q-4.25 -4.25 -10.125 -6.75q-5.875 -2.515625 -12.3125 -2.515625q-6.4375 0 -12.3125 2.515625q-5.875 2.5 -10.125 6.75q-4.234375 4.234375 -6.75 10.109375zm-5.8281174 27.09372q-3.015625 -7.03125 -3.015625 -14.7655945q0 -7.75 3.015625 -14.78125q3.0156174 -7.046875 8.109367 -12.140625q5.109375 -5.09375 12.140625 -8.109375q7.03125 -3.015625 14.765625 -3.015625q7.75 0 14.78125 3.015625q7.03125 3.015625 12.125 8.109375q5.109375 5.09375 8.125 12.140625q3.015625 7.03125 3.015625 14.78125q0 7.7343445 -3.015625 14.7655945q-3.015625 7.03125 -8.125 12.140625q-5.09375 5.09375 -12.125 8.109375q-7.03125 3.015625 -14.78125 3.015625q-7.734375 0 -14.765625 -3.015625q-7.03125 -3.015625 -12.140625 -8.109375q-5.09375 -5.109375 -8.109367 -12.140625zm93.0736 2.921875l0 -35.40622q0 0 21.53125 0q5.6875 0 9.546875 5.28125q3.875 5.28125 3.875 12.421875q0 7.1874695 -3.875 12.4530945q-3.859375 5.25 -9.546875 5.25l-21.53125 0zm6.34375 -6.34375l15.1875 0q2.671875 0 4.828125 -3.234375q2.171875 -3.2343445 2.171875 -8.1249695q0 -4.921875 -2.171875 -8.140625q-2.15625 -3.21875 -4.828125 -3.21875l-15.1875 0l0 22.71872zm-5.8125 5.8125l21.0 0q5.171875 0 9.078125 -4.984375q3.90625 -4.984375 3.90625 -12.1874695q0 -4.75 -1.828125 -8.734375q-1.828125 -4.0 -4.8125 -6.21875q-2.96875 -2.21875 -6.34375 -2.21875l-21.0 0l0 34.34372zm-6.34375 6.34375l0 -47.03122l27.34375 0q5.28125 0 9.75 3.203125q4.4843903 3.1875 7.0625153 8.59375q2.59375 5.40625 2.59375 11.71875q0 6.28125 -2.59375 11.7030945q-2.578125 5.421875 -7.0625153 8.625q-4.46875 3.1875 -9.75 3.1875l-27.34375 0zm0.53125 -0.53125l26.8125 0q4.984375 0 9.328125 -3.03125q4.34375 -3.03125 6.9843903 -8.34375q2.640625 -5.3124695 2.640625 -11.6093445q0 -6.25 -2.640625 -11.578125q-2.6406403 -5.34375 -7.0000153 -8.375q-4.359375 -3.03125 -9.3125 -3.03125l-26.8125 0l0 45.96872zm-6.34375 6.34375l0 -58.65622l33.15625 0q6.828125 0 12.671875 3.96875q5.8593903 3.96875 9.281265 10.734375q3.421875 6.75 3.421875 14.625q0 7.8749695 -3.421875 14.6405945q-3.421875 6.75 -9.281265 10.71875q-5.84375 3.96875 -12.671875 3.96875l-33.15625 0zm0.53125 -0.53125l32.625 0q4.890625 0 9.484375 -2.25q4.5937653 -2.265625 7.9687653 -6.09375q3.375 -3.84375 5.421875 -9.21875q2.046875 -5.3749695 2.046875 -11.2343445q0 -5.859375 -2.046875 -11.203125q-2.046875 -5.359375 -5.421875 -9.21875q-3.375 -3.859375 -7.9687653 -6.109375q-4.59375 -2.25 -9.484375 -2.25l-32.625 0l0 57.578094zm32.625 6.34375l-38.96875 0l0 -70.265594l38.96875 0q8.390625 0 15.60939 4.75q7.21875 4.734375 11.46875 12.828125q4.265625 8.09375 4.265625 17.546875q0 7.1093445 -2.515625 13.5937195q-2.515625 6.484375 -6.734375 11.21875q-4.203125 4.734375 -10.01564 7.53125q-5.796875 2.796875 -12.078125 2.796875zm52.252487 0l-6.34375 0l0 -70.265594l6.34375 0l0 70.265594zm-5.8125 0l-6.34375 0l0 -70.265594l6.34375 0l0 70.265594zm-5.8125 0l-6.34375 0l0 -70.265594l6.34375 0l0 70.265594zm17.43753 -17.96875l30.921875 0l0 6.34375l-30.921875 0l0 -0.53125l30.921875 0l0 6.34375l-30.921875 0l0 -0.53125l30.921875 0l0 6.34375l-37.265656 0l0 -70.265594l37.265656 0l0 6.34375l-30.921875 0l0 -0.546875l30.921875 0l0 6.34375l-30.921875 0l0 -0.53125l30.921875 0l0 6.34375l-30.921875 0l0 8.1875l15.859375 0l0 6.34375l-15.859375 0l0 -0.53125l15.859375 0l0 6.34375l-15.859375 0l0 -0.53125l15.859375 0l0 6.3437195l-15.859375 0l0 8.1875zm34.493927 -19.81247l0 -6.34375l35.40625 0l0 6.34375l-35.40625 0zm0 5.8125l0 -6.34375l35.40625 0l0 6.34375l-35.40625 0zm0 5.8124695l0 -6.3437195l35.40625 0l0 6.3437195l-35.40625 0zm67.99246 -14.5312195l-4.875 0q-3.890625 0 -5.734375 -2.125q-1.84375 -2.140625 -1.84375 -5.40625q0 -7.53125 10.40625 -7.53125q8.609375 0 15.34375 3.953125l-5.203125 3.953125q-3.421875 -1.5625 -10.140625 -1.5625q-2.96875 0 -3.5625 0.390625q-0.578125 0.375 -0.578125 0.96875q0 0.578125 0.1875 0.796875q0.1875 0.21875 1.125 0.21875l5.0 0q5.796875 0 10.515625 2.015625q4.71875 2.0 7.78125 5.484375q3.0625 3.46875 4.65625 7.9375q1.609375 4.4687195 1.609375 9.5312195q0 4.140625 -1.171875 7.875q-1.171875 3.734375 -3.546875 6.875q-2.375 3.140625 -5.703125 5.421875q-3.3125 2.28125 -7.828125 3.53125q-4.5 1.265625 -9.703125 1.265625q-8.078125 0 -15.1875 -2.46875q-7.109375 -2.46875 -13.390625 -8.359375l5.125 -3.8125q4.890625 4.421875 10.78125 6.359375q5.890625 1.9375 12.671875 1.9375q5.234375 0 9.375 -1.484375q4.15625 -1.484375 6.765625 -4.015625q2.625 -2.53125 4.046875 -5.875q1.421875 -3.359375 1.421875 -7.25q0 -5.203125 -2.0625 -9.3437195q-2.046875 -4.140625 -6.265625 -6.703125q-4.203125 -2.578125 -10.015625 -2.578125zm-4.875 -0.53125l4.59375 0q8.953125 0 14.046875 5.53125q5.109375 5.53125 5.109375 13.6249695q0 8.296875 -5.890625 13.734375q-5.890625 5.421875 -16.25 5.421875q-6.71875 0 -12.625 -1.859375q-5.90625 -1.875 -11.453125 -6.703125l4.96875 -3.96875q4.109375 3.375 8.84375 4.78125q4.75 1.40625 10.265625 1.40625q7.859375 0 11.828125 -3.59375q3.96875 -3.609375 3.96875 -9.21875q0 -5.625 -3.296875 -9.2187195q-3.28125 -3.59375 -9.546875 -3.59375l-4.5625 0q-6.640625 0 -10.078125 -3.75q-3.4375 -3.75 -3.4375 -9.640625q0 -5.890625 4.1875 -9.59375q4.1875 -3.703125 12.15625 -3.703125q5.359375 0 10.03125 1.28125q4.671875 1.265625 9.546875 5.046875l-5.03125 3.90625q-5.640625 -3.890625 -14.546875 -3.890625q-5.46875 0 -7.734375 1.953125q-2.265625 1.9375 -2.265625 5.046875q0 3.328125 1.609375 5.171875q1.609375 1.828125 5.5625 1.828125zm0 5.8125l4.4375 0q6.65625 0 10.078125 3.8125q3.421875 3.7968445 3.421875 9.5312195q0 5.953125 -4.1875 9.65625q-4.171875 3.6875 -12.140625 3.6875q-5.359375 0 -10.0625 -1.265625q-4.6875 -1.265625 -9.5625 -5.046875l5.03125 -3.90625q5.640625 3.875 14.59375 3.875q5.453125 0 7.71875 -1.9375q2.265625 -1.9375 2.265625 -5.125q0 -3.203125 -1.640625 -5.0625q-1.625 -1.8749695 -5.5625 -1.8749695l-4.390625 0q-9.03125 0 -14.171875 -5.453125q-5.140625 -5.46875 -5.140625 -13.734375q0 -8.265625 5.890625 -13.6875q5.890625 -5.421875 16.25 -5.421875q6.71875 0 12.59375 1.875q5.890625 1.859375 11.4375 6.65625l-4.953125 4.0q-4.140625 -3.375 -8.859375 -4.78125q-4.703125 -1.421875 -10.21875 -1.421875q-7.859375 0 -11.84375 3.609375q-3.96875 3.59375 -3.96875 9.203125q0 5.671875 3.3125 9.25q3.3125 3.5625 9.671875 3.5625zm0 5.8125l4.4375 0q3.90625 0 5.734375 2.1718445q1.828125 2.15625 1.828125 5.359375q0 7.53125 -10.390625 7.53125q-8.65625 0 -15.390625 -3.953125l5.203125 -3.953125q3.421875 1.5625 10.1875 1.5625q2.96875 0 3.546875 -0.375q0.59375 -0.375 0.59375 -0.8125q0 -0.703125 -0.21875 -0.9375q-0.203125 -0.25 -1.171875 -0.25l-4.359375 0q-5.90625 0 -10.75 -1.9375q-4.84375 -1.953125 -7.96875 -5.4062195q-3.125 -3.46875 -4.765625 -7.96875q-1.640625 -4.515625 -1.640625 -9.65625q0 -4.140625 1.171875 -7.875q1.171875 -3.734375 3.546875 -6.875q2.375 -3.140625 5.6875 -5.40625q3.328125 -2.28125 7.828125 -3.53125q4.515625 -1.265625 9.71875 -1.265625q8.078125 0 15.15625 2.46875q7.09375 2.46875 13.375 8.359375l-5.125 3.796875q-4.890625 -4.421875 -10.765625 -6.34375q-5.859375 -1.9375 -12.640625 -1.9375q-5.234375 0 -9.390625 1.484375q-4.140625 1.484375 -6.765625 4.015625q-2.625 2.53125 -4.046875 5.875q-1.40625 3.34375 -1.40625 7.234375q0 5.296875 2.09375 9.453125q2.09375 4.140625 6.390625 6.65625q4.296875 2.515625 10.296875 2.515625zm58.507233 -5.765625l-3.3125 7.2655945l-20.203125 -42.171844l6.71875 0l16.796875 34.90625zm2.921875 -6.375l-3.359375 7.21875l-17.265625 -35.75l6.71875 0l13.90625 28.53125zm2.90625 -6.34375l-3.296875 7.234375l-14.453125 -29.421875l6.734375 0l11.015625 22.1875zm-7.296875 23.453094l21.65625 -45.640594l6.71875 0l-22.03125 46.421844l0 23.84375l-6.34375 0l0 -24.625zm5.8125 0l21.65625 -45.640594l6.71875 0l-22.03125 46.421844l0 23.84375l-6.34375 0l0 -24.625zm5.8125 0l21.65625 -45.640594l6.71875 0l-22.03125 46.421844l0 23.84375l-6.34375 0l0 -24.625zm-14.265625 -6.6874695l18.484375 -38.953125l6.71875 0l-22.03125 46.421844l0 23.84375l-6.34375 0l0 -23.84375l-22.03125 -46.421844l6.71875 0l18.484375 38.953125zm72.08032 -9.375l-4.875 0q-3.890625 0 -5.734375 -2.125q-1.84375 -2.140625 -1.84375 -5.40625q0 -7.53125 10.40625 -7.53125q8.609375 0 15.34375 3.953125l-5.203125 3.953125q-3.421875 -1.5625 -10.140625 -1.5625q-2.96875 0 -3.5625 0.390625q-0.578125 0.375 -0.578125 0.96875q0 0.578125 0.1875 0.796875q0.1875 0.21875 1.125 0.21875l5.0 0q5.796875 0 10.515625 2.015625q4.71875 2.0 7.78125 5.484375q3.0625 3.46875 4.65625 7.9375q1.609375 4.4687195 1.609375 9.5312195q0 4.140625 -1.171875 7.875q-1.171875 3.734375 -3.546875 6.875q-2.375 3.140625 -5.703125 5.421875q-3.3125 2.28125 -7.828125 3.53125q-4.5 1.265625 -9.703125 1.265625q-8.078125 0 -15.1875 -2.46875q-7.109375 -2.46875 -13.390625 -8.359375l5.125 -3.8125q4.890625 4.421875 10.78125 6.359375q5.890625 1.9375 12.671875 1.9375q5.234375 0 9.375 -1.484375q4.15625 -1.484375 6.765625 -4.015625q2.625 -2.53125 4.046875 -5.875q1.421875 -3.359375 1.421875 -7.25q0 -5.203125 -2.0625 -9.3437195q-2.046875 -4.140625 -6.265625 -6.703125q-4.203125 -2.578125 -10.015625 -2.578125zm-4.875 -0.53125l4.59375 0q8.953125 0 14.046875 5.53125q5.109375 5.53125 5.109375 13.6249695q0 8.296875 -5.890625 13.734375q-5.890625 5.421875 -16.25 5.421875q-6.71875 0 -12.625 -1.859375q-5.90625 -1.875 -11.453125 -6.703125l4.96875 -3.96875q4.109375 3.375 8.84375 4.78125q4.75 1.40625 10.265625 1.40625q7.859375 0 11.828125 -3.59375q3.96875 -3.609375 3.96875 -9.21875q0 -5.625 -3.296875 -9.2187195q-3.28125 -3.59375 -9.546875 -3.59375l-4.5625 0q-6.640625 0 -10.078125 -3.75q-3.4375 -3.75 -3.4375 -9.640625q0 -5.890625 4.1875 -9.59375q4.1875 -3.703125 12.15625 -3.703125q5.359375 0 10.03125 1.28125q4.671875 1.265625 9.546875 5.046875l-5.03125 3.90625q-5.640625 -3.890625 -14.546875 -3.890625q-5.46875 0 -7.734375 1.953125q-2.265625 1.9375 -2.265625 5.046875q0 3.328125 1.609375 5.171875q1.609375 1.828125 5.5625 1.828125zm0 5.8125l4.4375 0q6.65625 0 10.078125 3.8125q3.421875 3.7968445 3.421875 9.5312195q0 5.953125 -4.1875 9.65625q-4.171875 3.6875 -12.140625 3.6875q-5.359375 0 -10.0625 -1.265625q-4.6875 -1.265625 -9.5625 -5.046875l5.03125 -3.90625q5.640625 3.875 14.59375 3.875q5.453125 0 7.71875 -1.9375q2.265625 -1.9375 2.265625 -5.125q0 -3.203125 -1.640625 -5.0625q-1.625 -1.8749695 -5.5625 -1.8749695l-4.390625 0q-9.03125 0 -14.171875 -5.453125q-5.140625 -5.46875 -5.140625 -13.734375q0 -8.265625 5.890625 -13.6875q5.890625 -5.421875 16.25 -5.421875q6.71875 0 12.59375 1.875q5.890625 1.859375 11.4375 6.65625l-4.953125 4.0q-4.140625 -3.375 -8.859375 -4.78125q-4.703125 -1.421875 -10.21875 -1.421875q-7.859375 0 -11.84375 3.609375q-3.96875 3.59375 -3.96875 9.203125q0 5.671875 3.3125 9.25q3.3125 3.5625 9.671875 3.5625zm0 5.8125l4.4375 0q3.90625 0 5.734375 2.1718445q1.828125 2.15625 1.828125 5.359375q0 7.53125 -10.390625 7.53125q-8.65625 0 -15.390625 -3.953125l5.203125 -3.953125q3.421875 1.5625 10.1875 1.5625q2.96875 0 3.546875 -0.375q0.59375 -0.375 0.59375 -0.8125q0 -0.703125 -0.21875 -0.9375q-0.203125 -0.25 -1.171875 -0.25l-4.359375 0q-5.90625 0 -10.75 -1.9375q-4.84375 -1.953125 -7.96875 -5.4062195q-3.125 -3.46875 -4.765625 -7.96875q-1.640625 -4.515625 -1.640625 -9.65625q0 -4.140625 1.171875 -7.875q1.171875 -3.734375 3.546875 -6.875q2.375 -3.140625 5.6875 -5.40625q3.328125 -2.28125 7.828125 -3.53125q4.515625 -1.265625 9.71875 -1.265625q8.078125 0 15.15625 2.46875q7.09375 2.46875 13.375 8.359375l-5.125 3.796875q-4.890625 -4.421875 -10.765625 -6.34375q-5.859375 -1.9375 -12.640625 -1.9375q-5.234375 0 -9.390625 1.484375q-4.140625 1.484375 -6.765625 4.015625q-2.625 2.53125 -4.046875 5.875q-1.40625 3.34375 -1.40625 7.234375q0 5.296875 2.09375 9.453125q2.09375 4.140625 6.390625 6.65625q4.296875 2.515625 10.296875 2.515625zm31.257202 -34.328125l0 -6.34375l47.015625 0l0 6.34375l-47.015625 0zm0 5.796875l0 -6.34375l47.015625 0l0 6.34375l-47.015625 0zm0 5.8125l0 -6.34375l47.015625 0l0 6.34375l-11.625 0l0 52.31247l-6.34375 0l0 -52.31247l0.53125 0l0 52.31247l-6.34375 0l0 -52.31247l0.53125 0l0 52.31247l-6.34375 0l0 -52.31247l0.53125 0l0 52.31247l-6.34375 0l0 -52.31247l-11.609375 0zm72.10974 15.625l19.234375 0q3.328125 0 5.5625 -2.09375q2.25 -2.109375 2.25 -6.125q0 -2.78125 -2.390625 -5.09375q-2.390625 -2.3125 -5.421875 -2.3125l-23.21875 0l0 52.31247l-6.34375 0l0 -58.65622l29.5625 0q5.640625 0 9.890625 4.15625q4.265625 4.15625 4.265625 9.59375q0 6.546875 -4.140625 10.5625q-4.140625 4.0 -10.015625 4.0l-19.234375 0l0 -6.34375zm0 5.8125l19.234375 0q5.59375 0 9.609375 -3.921875q4.015625 -3.921875 4.015625 -10.109375q0 -5.21875 -4.125 -9.21875q-4.109375 -4.0 -9.5 -4.0l-29.03125 0l0 58.12497l-6.34375 0l0 -64.46872l35.375 0q5.28125 0 9.890625 2.703125q4.609375 2.6875 7.34375 7.21875q2.734375 4.515625 2.734375 9.640625q0 8.671875 -5.90625 14.53125q-5.890625 5.8437195 -14.0625 5.8437195l-19.234375 0l0 -6.3437195zm0 5.8124695l19.234375 0q5.203125 0 9.640625 -2.5625q4.453125 -2.5624695 7.125 -7.1405945q2.671875 -4.59375 2.671875 -10.140625q0 -4.96875 -2.65625 -9.359375q-2.640625 -4.390625 -7.140625 -7.015625q-4.5 -2.640625 -9.640625 -2.640625l-34.84375 0l0 63.921844l-6.34375 0l0 -70.265594l41.1875 0q6.8125 0 12.765625 3.46875q5.96875 3.46875 9.484375 9.328125q3.53125 5.859375 3.53125 12.5625q0 7.640625 -3.3125 13.484375q-3.3125 5.8437195 -7.796875 8.4530945l7.84375 22.96875l-6.703125 0l-6.953125 -20.1875q-0.078125 0.078125 -0.40625 -0.75l8.078125 20.9375l-6.6875 0l-5.640625 -20.328125q0.1875 1.296875 0.015625 1.3125l6.3125 19.015625l-6.6875 0l-6.171875 -18.734375l0.96875 0l5.890625 18.734375l-6.671875 0l-5.9375 -18.734375l-11.15625 0l0 -6.328125zm1.828125 25.0625l-6.34375 0l0 -52.84372l23.75 0q3.375 0 5.859375 2.328125q2.484375 2.3125 2.484375 5.609375q0 8.75 -8.34375 8.75l-19.234375 0l0 -6.34375l19.234375 0q1.0625 0 1.53125 -0.421875q0.46875 -0.4375 0.46875 -1.984375q0 -0.640625 -0.546875 -1.109375q-0.53125 -0.484375 -1.453125 -0.484375l-17.40625 0l0 46.49997zm73.99121 -19.609375l2.5625 -6.34375l12.234375 0l2.5625 6.34375l-17.359375 0zm-2.234375 5.8125l2.484375 -6.34375l16.78125 0l2.734375 6.34375l-22.0 0zm-2.25 5.8125l2.46875 -6.34375l21.359375 0l2.65625 6.34375l-26.484375 0zm-19.921875 7.984375l-6.859375 0l27.796875 -70.265594l5.5 0l27.75 70.265594l-6.8125 0l-23.6875 -59.96872l-23.6875 59.96872zm23.953125 -62.171844l3.609375 8.09375l-21.359375 54.078094l-6.796875 0l24.546875 -62.171844zm3.34375 7.375l3.359375 8.734375l-18.15625 46.06247l-6.84375 0l21.640625 -54.796844zm3.078125 7.9375l3.34375 8.875l-15.0 37.984344l-6.8125 0l18.46875 -46.859344zm42.578125 46.859344l-6.859375 0l-27.75 -70.265594l6.8125 0l27.796875 70.265594zm-34.046875 -70.265594l27.796875 70.265594l-6.8125 0l-27.796875 -70.265594l6.8125 0zm-6.265625 0l27.796875 70.265594l-6.84375 0l-27.765625 -70.265594l6.8125 0zm67.11267 34.90625l-3.3125 7.2655945l-20.203125 -42.171844l6.71875 0l16.796875 34.90625zm2.921875 -6.375l-3.359375 7.21875l-17.265625 -35.75l6.71875 0l13.90625 28.53125zm2.90625 -6.34375l-3.296875 7.234375l-14.453125 -29.421875l6.734375 0l11.015625 22.1875zm-7.296875 23.453094l21.65625 -45.640594l6.71875 0l-22.03125 46.421844l0 23.84375l-6.34375 0l0 -24.625zm5.8125 0l21.65625 -45.640594l6.71875 0l-22.03125 46.421844l0 23.84375l-6.34375 0l0 -24.625zm5.8125 0l21.65625 -45.640594l6.71875 0l-22.03125 46.421844l0 23.84375l-6.34375 0l0 -24.625zm-14.265625 -6.6874695l18.484375 -38.953125l6.71875 0l-22.03125 46.421844l0 23.84375l-6.34375 0l0 -23.84375l-22.03125 -46.421844l6.71875 0l18.484375 38.953125zm43.236572 -6.46875l0 -6.34375l35.40625 0l0 6.34375l-35.40625 0zm0 5.8125l0 -6.34375l35.40625 0l0 6.34375l-35.40625 0zm0 5.8124695l0 -6.3437195l35.40625 0l0 6.3437195l-35.40625 0zm36.21118 -44.109344l6.84375 0l23.6875 59.953094l23.6875 -59.953094l6.8125 0l-27.75 70.265594l-5.5 0l-27.78125 -70.265594zm34.40625 54.06247l-3.609375 8.109375l-24.546875 -62.171844l6.8125 0l21.34375 54.06247zm3.09375 -8.015625l-3.34375 8.75l-21.65625 -54.796844l6.859375 0l18.140625 46.046844zm3.078125 -8.0624695l-3.359375 8.8593445l-18.453125 -46.84372l6.8125 0l15.0 37.984375zm32.375 -37.984375l6.84375 0l-27.796875 70.265594l-6.796875 0l27.75 -70.265594zm-6.21875 0l6.8125 0l-27.796875 70.265594l-6.8125 0l27.796875 -70.265594zm-6.296875 0l6.859375 0l-27.796875 70.265594l-6.8125 0l27.75 -70.265594zm19.75708 58.640594l0 -6.34375l42.828125 0l0 6.34375l-42.828125 0zm0 5.8125l0 -6.34375l42.828125 0l0 6.34375l-42.828125 0zm0 5.8125l0 -6.34375l42.828125 0l0 6.34375l-42.828125 0zm7.0625 -16.140625l-7.640625 0q4.828125 -6.578125 7.578125 -10.25q2.75 -3.6874695 4.578125 -6.1249695q1.84375 -2.4375 3.578125 -4.78125q1.734375 -2.34375 2.796875 -3.75q1.078125 -1.421875 2.015625 -2.71875q0.953125 -1.296875 1.40625 -2.0q0.46875 -0.71875 0.78125 -1.28125q0.328125 -0.578125 0.375 -0.78125q0.0625 -0.21875 0.0625 -0.390625q0 -0.625 -0.828125 -0.90625q-0.8125 -0.28125 -4.390625 -0.28125q-6.078125 0 -13.890625 2.0625l-1.296875 -5.921875q2.5 -1.078125 6.765625 -1.8125q4.28125 -0.75 8.21875 -0.75q2.4375 0 4.3125 0.296875q1.875 0.296875 3.609375 1.078125q1.75 0.765625 2.734375 2.390625q1.0 1.625 1.0 3.859375q0 2.234375 -1.9375 5.1875q-1.9375 2.9375 -9.3125 12.78125q-5.96875 7.9530945 -10.515625 14.0937195zm6.609375 0l-7.703125 0q17.078125 -22.984344 18.71875 -25.34372q3.1875 -4.546875 3.515625 -6.28125q0.09375 -0.390625 0.09375 -0.84375q0 -6.640625 -10.953125 -6.640625q-3.734375 0 -7.578125 0.671875q-3.84375 0.65625 -7.4375 1.984375l-1.265625 -6.296875q8.625 -2.671875 16.3125 -2.671875q2.71875 0 5.078125 0.375q2.359375 0.359375 4.609375 1.265625q2.25 0.90625 3.921875 2.40625q1.671875 1.484375 2.640625 3.765625q0.96875 2.265625 0.96875 5.140625q0 3.09375 -2.703125 7.25q-2.6875 4.140625 -15.40625 21.34372q-1.515625 2.015625 -2.8125 3.875zm6.703125 0l-7.640625 0q15.734375 -21.49997 18.53125 -25.87497q2.796875 -4.390625 2.796875 -7.0q0 -3.359375 -1.265625 -5.703125q-1.25 -2.34375 -3.5625 -3.6875q-2.3125 -1.34375 -5.265625 -1.984375q-2.953125 -0.640625 -6.625 -0.640625q-7.21875 0 -16.21875 2.75l-1.28125 -6.34375q9.6875 -2.859375 17.375 -2.859375q3.765625 0 7.046875 0.5625q3.296875 0.546875 6.296875 1.890625q3.015625 1.328125 5.171875 3.46875q2.15625 2.125 3.40625 5.34375q1.265625 3.203125 1.265625 7.203125q0 3.0 -1.34375 5.953125q-1.34375 2.953125 -5.25 8.609375q-3.90625 5.640625 -13.4375 18.31247zm6.953125 0l-7.671875 0q10.5625 -13.9843445 14.3125 -19.56247q3.75 -5.578125 4.828125 -8.25q1.078125 -2.6875 1.078125 -5.46875q0 -3.640625 -1.078125 -6.53125q-1.0625 -2.90625 -3.0 -4.859375q-1.921875 -1.96875 -4.71875 -3.34375q-2.78125 -1.390625 -6.203125 -2.03125q-3.421875 -0.640625 -7.453125 -0.640625q-7.5 0 -17.46875 2.875l-1.28125 -6.265625q10.265625 -2.953125 18.671875 -2.953125q6.265625 0 11.4375 1.375q5.171875 1.375 9.125 4.21875q3.96875 2.84375 6.140625 7.515625q2.171875 4.65625 2.171875 10.640625q0 3.84375 -1.234375 7.234375q-1.234375 3.390625 -5.171875 9.28125q-3.9375 5.8905945 -12.484375 16.765594z" fill-rule="nonzero"/></g></svg>